<svg width="37" height="37" viewBox="0 0 37 37" fill="none" xmlns="http://www.w3.org/2000/svg">
<path d="M26.2083 3.0835H10.7916C6.53439 3.0835 3.08325 6.53463 3.08325 10.7918V26.2085C3.08325 30.4657 6.53439 33.9168 10.7916 33.9168H26.2083C30.4654 33.9168 33.9166 30.4657 33.9166 26.2085V10.7918C33.9166 6.53463 30.4654 3.0835 26.2083 3.0835Z" stroke="#2D2D2D" stroke-width="2" stroke-linecap="round" stroke-linejoin="round"/>
<path d="M26.979 10.021H26.9945M24.6665 17.5289C24.8568 18.812 24.6376 20.1223 24.0403 21.2736C23.4429 22.425 22.4976 23.3586 21.339 23.9417C20.1805 24.5249 18.8675 24.7279 17.5869 24.5218C16.3063 24.3157 15.1233 23.7111 14.2061 22.794C13.2889 21.8768 12.6843 20.6938 12.4782 19.4132C12.2722 18.1326 12.4751 16.8196 13.0583 15.661C13.6414 14.5024 14.5751 13.5572 15.7264 12.9598C16.8777 12.3624 18.1881 12.1432 19.4711 12.3335C20.7799 12.5276 21.9915 13.1374 22.9271 14.073C23.8626 15.0085 24.4725 16.2202 24.6665 17.5289Z" stroke="#2D2D2D" stroke-width="2" stroke-linecap="round" stroke-linejoin="round"/>
</svg>
