<svg width="40" height="40" viewBox="0 0 40 40" fill="none" xmlns="http://www.w3.org/2000/svg">
<path d="M18.6487 15.0002H26.1487L25.3153 18.3335H18.6487V33.3335H15.3153V18.3335H8.64868V15.0002H15.3153V11.8802C15.3153 8.9085 15.6253 7.83016 16.2053 6.7435C16.7741 5.67015 17.652 4.79226 18.7253 4.2235C19.812 3.6435 20.8903 3.3335 23.862 3.3335C24.7331 3.3335 25.4953 3.41683 26.1487 3.5835V6.66683H23.862C21.6553 6.66683 20.9837 6.79683 20.297 7.1635C19.8041 7.42101 19.4021 7.82357 19.1453 8.31683C18.7787 9.00183 18.6487 9.6735 18.6487 11.8802V15.0002Z" fill="#2D2D2D"/>
</svg>
